<svg width="54" height="40" viewBox="0 0 54 40" fill="none" xmlns="http://www.w3.org/2000/svg">
<path d="M53.3486 18.3298C53.3489 19.9244 52.8917 21.4856 52.0313 22.8282C51.171 24.1707 49.9435 25.2383 48.4946 25.9042C47.9139 24.8852 47.1834 23.9591 46.3276 23.1571C47.6079 22.8083 48.6972 21.9652 49.3559 20.8133C50.0145 19.6613 50.1886 18.2949 49.8398 17.0146C49.491 15.7343 48.6479 14.6451 47.4959 13.9864C46.344 13.3277 44.9776 13.1537 43.6973 13.5025C43.4669 13.5649 43.2257 13.5772 42.9902 13.5384C42.7546 13.4995 42.5302 13.4106 42.332 13.2775C42.1338 13.1444 41.9665 12.9703 41.8414 12.767C41.7163 12.5637 41.6364 12.3359 41.607 12.099C41.3712 10.1898 40.5899 8.3891 39.3566 6.91276C38.1234 5.43642 36.4905 4.34707 34.6538 3.77529C32.817 3.20351 30.8543 3.17356 29.001 3.68903C27.1477 4.2045 25.4823 5.24352 24.2046 6.68154C22.7801 6.61617 21.3528 6.7146 19.9507 6.97492C21.2292 4.62063 23.1868 2.70576 25.5687 1.47956C27.9506 0.253364 30.6465 -0.227357 33.3055 0.0999747C35.9644 0.427307 38.4632 1.54753 40.4766 3.31482C42.49 5.08211 43.9248 7.4146 44.5941 10.0087C45.7223 9.95173 46.8503 10.1247 47.9096 10.5172C48.9688 10.9096 49.9373 11.5133 50.7561 12.2916C51.5749 13.0698 52.2269 14.0064 52.6726 15.0444C53.1182 16.0824 53.3482 17.2002 53.3486 18.3298Z" fill="white"/>
<path d="M23.3441 9.99585C27.0348 9.99514 30.5962 11.3549 33.3473 13.8151C36.0984 16.2753 37.8461 19.6632 38.2561 23.331H38.3462C40.5566 23.331 42.6765 24.2091 44.2395 25.7721C45.8025 27.3351 46.6806 29.4551 46.6806 31.6655C46.6806 33.8759 45.8025 35.9958 44.2395 37.5589C42.6765 39.1219 40.5566 40 38.3462 40H10.0089C7.42644 40.0019 4.9433 39.0049 3.07929 37.2175C1.21527 35.4301 0.1149 32.991 0.0085001 30.4107C-0.0978996 27.8304 0.797923 25.3089 2.50845 23.3741C4.21898 21.4394 6.6116 20.2412 9.18549 20.0306C10.2157 17.0976 12.1312 14.5569 14.6675 12.7594C17.2037 10.9619 20.2355 9.99625 23.3441 9.99585V9.99585ZM35.0124 24.9979C35.0143 22.1559 33.979 19.4109 32.1007 17.2781C30.2224 15.1453 27.6303 13.7713 24.8108 13.4141C21.9914 13.0569 19.1385 13.7409 16.7876 15.3379C14.4367 16.9348 12.7494 19.3348 12.0425 22.0875C11.9469 22.4601 11.7253 22.7881 11.4155 23.0159C11.1056 23.2438 10.7264 23.3575 10.3423 23.3377C9.45672 23.2984 8.57219 23.436 7.74044 23.7426C6.90869 24.0492 6.14643 24.5186 5.49824 25.1233C4.85006 25.728 4.32896 26.4559 3.96544 27.2644C3.60191 28.0729 3.40326 28.9458 3.38109 29.832C3.35893 30.7182 3.5137 31.5999 3.83635 32.4255C4.15899 33.2512 4.64305 34.0042 5.26019 34.6406C5.87733 35.2769 6.61517 35.7838 7.43056 36.1316C8.24594 36.4795 9.12249 36.6612 10.0089 36.6662H38.3462C39.0552 36.6645 39.7558 36.5121 40.4015 36.2191C41.0471 35.926 41.6231 35.499 42.0911 34.9663C42.5591 34.4337 42.9085 33.8076 43.1161 33.1296C43.3237 32.4516 43.3848 31.7373 43.2952 31.0339C43.2057 30.3305 42.9676 29.6542 42.5967 29.0499C42.2258 28.4456 41.7307 27.927 41.1441 27.5286C40.5575 27.1303 39.8929 26.8612 39.1944 26.7393C38.4959 26.6174 37.7795 26.6454 37.0927 26.8215C36.8444 26.8851 36.5848 26.8906 36.3341 26.8375C36.0834 26.7845 35.8482 26.6744 35.647 26.5157C35.4458 26.357 35.2838 26.1541 35.1737 25.9226C35.0637 25.6912 35.0085 25.4375 35.0124 25.1813V24.9979Z" fill="white"/>
</svg>
