<svg width="25" height="25" viewBox="0 0 25 25" fill="none" xmlns="http://www.w3.org/2000/svg">
<path d="M16.0359 10.2857C15.6121 10.2857 15.1978 10.16 14.8454 9.92457C14.493 9.68911 14.2184 9.35444 14.0562 8.96289C13.894 8.57133 13.8516 8.14048 13.9342 7.7248C14.0169 7.30913 14.221 6.92731 14.5207 6.62763C14.8204 6.32794 15.2022 6.12386 15.6179 6.04118C16.0335 5.95849 16.4644 6.00093 16.856 6.16312C17.2475 6.3253 17.5822 6.59996 17.8176 6.95235C18.0531 7.30474 18.1788 7.71904 18.1788 8.14285C18.1781 8.71095 17.9521 9.25559 17.5504 9.65729C17.1487 10.059 16.604 10.285 16.0359 10.2857V10.2857ZM16.0359 7.07143C15.824 7.07143 15.6169 7.13426 15.4407 7.25199C15.2645 7.36972 15.1271 7.53706 15.0461 7.73284C14.965 7.92861 14.9437 8.14404 14.9851 8.35188C15.0264 8.55971 15.1285 8.75062 15.2783 8.90047C15.4281 9.05031 15.6191 9.15235 15.8269 9.19369C16.0347 9.23503 16.2502 9.21382 16.4459 9.13272C16.6417 9.05163 16.809 8.9143 16.9268 8.73811C17.0445 8.56191 17.1073 8.35476 17.1073 8.14285C17.1071 7.85878 16.9941 7.58642 16.7932 7.38555C16.5923 7.18468 16.32 7.07171 16.0359 7.07143V7.07143Z" fill="white"/>
<path d="M10 20C9.20606 20.0005 8.44431 19.7329 7.88189 19.2558C7.31947 18.7788 7.00231 18.1313 7 17.4554C7 15.8567 9.36945 7.69785 9.47091 7.35145C9.50047 7.25105 9.56859 7.16194 9.66445 7.09826C9.76031 7.03458 9.87841 7 10 7C10.1216 7 10.2397 7.03458 10.3356 7.09826C10.4314 7.16194 10.4995 7.25105 10.5291 7.35145C10.6305 7.69785 13 15.8567 13 17.4554C12.9977 18.1313 12.6805 18.7788 12.1181 19.2558C11.5557 19.7329 10.7939 20.0005 10 20V20Z" fill="white"/>
</svg>
