<svg width="25" height="25" viewBox="0 0 25 25" fill="none" xmlns="http://www.w3.org/2000/svg">
<path d="M17.7794 12.7633C16.6793 9.14549 13.4417 5.2844 13.2771 5.08933C13.2514 5.06118 13.2201 5.0387 13.1852 5.02332C13.1503 5.00794 13.1126 5 13.0745 5C13.0364 5 12.9987 5.00794 12.9638 5.02332C12.9289 5.0387 12.8977 5.06118 12.8719 5.08933C12.7074 5.2844 9.46918 9.14494 8.36854 12.7633C8.14298 13.5054 8 14.2386 8 14.9263C8 17.7239 10.2766 20 13.0742 20C15.8718 20 18.1474 17.7239 18.1474 14.9263C18.1479 14.2386 18.0049 13.5059 17.7794 12.7633V12.7633ZM13.0748 19.4702C10.5693 19.4702 8.53092 17.4319 8.53092 14.9269C8.53092 14.2469 8.68222 13.512 8.92385 12.7638C9.88649 9.78504 12.3504 6.58122 13.0748 5.68065C13.7991 6.58122 16.2631 9.78504 17.2246 12.7638C17.4662 13.5126 17.6175 14.2469 17.6175 14.9269C17.6175 17.4319 15.5798 19.4702 13.0748 19.4702Z" fill="white"/>
<path d="M10.2308 12.7631C9.95366 13.4669 9.76855 14.1718 9.76855 14.8136C9.76855 15.6904 10.1169 16.5313 10.7369 17.1513C11.3569 17.7713 12.1978 18.1197 13.0746 18.1197C13.9514 18.1197 14.7924 17.7713 15.4124 17.1513C16.0324 16.5313 16.3807 15.6904 16.3807 14.8136C16.3807 14.1718 16.1956 13.4669 15.9185 12.7631H10.2308Z" fill="white"/>
</svg>
