<svg width="25" height="25" viewBox="0 0 25 25" fill="none" xmlns="http://www.w3.org/2000/svg">
<path d="M13.8333 12.5C13.8333 12.9583 13.4583 13.3333 13 13.3333C12.5417 13.3333 12.1667 12.9583 12.1667 12.5C12.1667 12.0417 12.5417 11.6667 13 11.6667C13.4583 11.6667 13.8333 12.0417 13.8333 12.5ZM11.3333 12.5L8.83333 10V11.6667H5.5V13.3333H8.83333V15L11.3333 12.5ZM14.6667 12.5L17.1667 15V13.3333H20.5V11.6667H17.1667V10L14.6667 12.5ZM20.0833 5.41667L19.1833 6.31667C20.7667 7.91667 21.75 10.0917 21.75 12.5C21.75 14.9167 20.7667 17.0833 19.1833 18.6833L20.0833 19.5833C21.8833 17.7583 23 15.2583 23 12.5C23 9.74167 21.8833 7.24167 20.0833 5.41667ZM7.74167 10C8.675 8.03333 10.6833 6.66667 13 6.66667C15.3167 6.66667 17.325 8.03333 18.2667 10H20.0833C19.0333 7.08333 16.2667 5 13 5C9.73333 5 6.96667 7.08333 5.91667 10H7.74167V10ZM6.81667 6.31667L5.91667 5.41667C4.11667 7.24167 3 9.74167 3 12.5C3 15.2583 4.11667 17.7583 5.91667 19.5833L6.81667 18.6833C5.23333 17.0833 4.25 14.9167 4.25 12.5C4.25 10.0917 5.23333 7.91667 6.81667 6.31667ZM18.2667 15C17.325 16.9667 15.325 18.3333 13 18.3333C10.675 18.3333 8.675 16.9667 7.74167 15H5.91667C6.96667 17.9167 9.73333 20 13 20C16.2667 20 19.0333 17.9167 20.0833 15H18.2667Z" fill="white"/>
</svg>
