<svg width="25" height="25" viewBox="0 0 25 25" fill="none" xmlns="http://www.w3.org/2000/svg">
<path d="M11.893 21H9.75015C9.46612 20.9996 9.19384 20.8866 8.993 20.6857C8.79216 20.4849 8.67914 20.2126 8.67871 19.9286V15.6428H9.75015V19.9286H11.893V15.6428H12.9645V19.9286C12.964 20.2126 12.851 20.4849 12.6502 20.6857C12.4493 20.8866 12.1771 20.9996 11.893 21Z" fill="white"/>
<path d="M18.3214 15.6428H17.3839L16.1785 20.4809L14.9957 15.6428H14.0356L15.3749 21H16.9821L18.3214 15.6428Z" fill="white"/>
<path d="M12.9644 6H14.0358V8.6786H12.9644V6Z" fill="white"/>
<path d="M16.5464 9.69627L18.4246 7.8175L19.1821 8.57555L17.3039 10.4538L16.5464 9.69627Z" fill="white"/>
<path d="M18.3213 12.9644H20.9999V14.0358H18.3213V12.9644Z" fill="white"/>
<path d="M6 12.9644H8.6786V14.0358H6V12.9644Z" fill="white"/>
<path d="M7.81836 8.57555L8.57587 7.8175L10.4541 9.69627L9.69659 10.4538L7.81836 8.57555Z" fill="white"/>
<path d="M16.7143 14.0357H15.6428V13.5C15.6428 12.9316 15.4171 12.3866 15.0152 11.9847C14.6133 11.5829 14.0683 11.3571 13.5 11.3571C12.9316 11.3571 12.3866 11.5829 11.9847 11.9847C11.5829 12.3866 11.3571 12.9316 11.3571 13.5V14.0357H10.2856V13.5C10.2856 12.6475 10.6243 11.8299 11.2271 11.2271C11.8299 10.6243 12.6475 10.2856 13.5 10.2856C14.3525 10.2856 15.17 10.6243 15.7728 11.2271C16.3756 11.8299 16.7143 12.6475 16.7143 13.5V14.0357Z" fill="white"/>
</svg>
