<svg width="25" height="25" viewBox="0 0 25 25" fill="none" xmlns="http://www.w3.org/2000/svg">
<path d="M20.25 5H5.25C4.91848 5 4.60054 5.1317 4.36612 5.36612C4.1317 5.60054 4 5.91848 4 6.25V18.75C4 19.0815 4.1317 19.3995 4.36612 19.6339C4.60054 19.8683 4.91848 20 5.25 20H20.25C20.5815 20 20.8995 19.8683 21.1339 19.6339C21.3683 19.3995 21.5 19.0815 21.5 18.75V6.25C21.5 5.91848 21.3683 5.60054 21.1339 5.36612C20.8995 5.1317 20.5815 5 20.25 5V5ZM20.25 18.75H5.25V6.25H20.25V18.75Z" fill="white"/>
<path d="M15.8749 15H10.8749C10.8118 14.5663 10.6202 14.1614 10.3249 13.8375L12.6999 9.6875L11.6124 9.0625L9.24985 13.2C9.06663 13.1496 8.87739 13.1244 8.68735 13.125C8.29556 13.1236 7.91059 13.2275 7.57267 13.4258C7.23475 13.6241 6.95628 13.9094 6.76636 14.2521C6.57645 14.5948 6.48205 14.9822 6.49305 15.3739C6.50404 15.7655 6.62002 16.147 6.82886 16.4785C7.0377 16.81 7.33174 17.0793 7.68026 17.2583C8.02877 17.4373 8.41896 17.5194 8.81006 17.4961C9.20116 17.4727 9.57881 17.3448 9.90355 17.1256C10.2283 16.9064 10.4882 16.604 10.6561 16.25H15.8749V15ZM8.68735 16.25C8.50193 16.25 8.32068 16.195 8.16651 16.092C8.01234 15.989 7.89217 15.8426 7.82122 15.6713C7.75026 15.5 7.73169 15.3115 7.76787 15.1296C7.80404 14.9477 7.89333 14.7807 8.02444 14.6496C8.15555 14.5185 8.3226 14.4292 8.50446 14.393C8.68631 14.3568 8.87481 14.3754 9.04612 14.4464C9.21743 14.5173 9.36384 14.6375 9.46686 14.7917C9.56987 14.9458 9.62485 15.1271 9.62485 15.3125C9.62485 15.5611 9.52608 15.7996 9.35027 15.9754C9.17445 16.1512 8.936 16.25 8.68735 16.25Z" fill="white"/>
<path d="M14.625 7.5H19V8.75H14.625V7.5Z" fill="white"/>
<path d="M14.625 10H17.125V11.25H14.625V10Z" fill="white"/>
</svg>
