<svg width="25" height="25" viewBox="0 0 25 25" fill="none" xmlns="http://www.w3.org/2000/svg">
<path d="M15.4179 9.94823L11.9258 11.5443C11.7569 11.6215 11.6215 11.7569 11.5443 11.9258L9.94823 15.4179C9.76411 15.8207 10.179 16.2359 10.5821 16.0518L14.0742 14.4557C14.2431 14.3785 14.3785 14.2431 14.4557 14.0742L16.0518 10.5821C16.2359 10.179 15.821 9.76411 15.4179 9.94823V9.94823ZM13.5463 13.5463C13.2446 13.848 12.7554 13.848 12.4537 13.5463C12.152 13.2446 12.152 12.7554 12.4537 12.4537C12.7554 12.152 13.2446 12.152 13.5463 12.4537C13.848 12.7554 13.848 13.2446 13.5463 13.5463ZM13 7C9.68621 7 7 9.68621 7 13C7 16.3138 9.68621 19 13 19C16.3138 19 19 16.3138 19 13C19 9.68621 16.3138 7 13 7ZM13 17.8387C10.3319 17.8387 8.16129 15.6681 8.16129 13C8.16129 10.3319 10.3319 8.16129 13 8.16129C15.6681 8.16129 17.8387 10.3319 17.8387 13C17.8387 15.6681 15.6681 17.8387 13 17.8387Z" fill="white"/>
</svg>
