<svg width="25" height="25" viewBox="0 0 25 25" fill="none" xmlns="http://www.w3.org/2000/svg">
<path d="M19 15.7869C19 15.6443 18.9518 15.5248 18.8555 15.4286C18.7556 15.3359 18.6414 15.2895 18.513 15.2895H15.4195C14.9985 15.2895 14.639 15.4401 14.3411 15.7414C14.0432 16.0427 13.8942 16.4037 13.8942 16.8244C13.8942 17.2487 14.0423 17.6097 14.3384 17.9074C14.6346 18.2051 14.9949 18.354 15.4195 18.354C15.8441 18.354 16.2063 18.2042 16.506 17.9047C16.5952 17.8156 16.6398 17.7015 16.6398 17.5625C16.6398 17.4234 16.5961 17.3084 16.5086 17.2175C16.4212 17.1266 16.3062 17.0811 16.1634 17.0811C16.0314 17.0811 15.9155 17.1275 15.8156 17.2202C15.7014 17.3307 15.5694 17.386 15.4195 17.386C15.2697 17.386 15.1394 17.3316 15.0288 17.2229C14.9182 17.1141 14.8629 16.9813 14.8629 16.8244C14.8629 16.6747 14.9182 16.5454 15.0288 16.4367C15.1394 16.3279 15.2697 16.2736 15.4195 16.2736H18.513C18.645 16.2736 18.7592 16.2263 18.8555 16.1318C18.9518 16.0373 19 15.9224 19 15.7869ZM19 14.0541C19 13.915 18.9518 13.7974 18.8555 13.7011C18.7556 13.6084 18.6414 13.5621 18.513 13.5621H12.492C12.3421 13.5621 12.2119 13.5068 12.1013 13.3963C11.9907 13.2857 11.9354 13.1538 11.9354 13.0005C11.9354 12.8472 11.9907 12.7162 12.1013 12.6074C12.2119 12.4987 12.3421 12.4443 12.492 12.4443C12.649 12.4443 12.7792 12.4978 12.8827 12.6047C12.9861 12.6903 13.1075 12.7331 13.2466 12.7331C13.3858 12.7331 13.499 12.6894 13.5865 12.6021C13.6739 12.5147 13.7176 12.4015 13.7176 12.2625C13.7176 12.1198 13.6748 12.004 13.5891 11.9148C13.3001 11.626 12.9344 11.4816 12.492 11.4816C12.0674 11.4816 11.7061 11.6296 11.4082 11.9255C11.1103 12.2215 10.9613 12.5798 10.9613 13.0005C10.9613 13.4212 11.1103 13.7804 11.4082 14.0782C11.7061 14.3759 12.0674 14.5247 12.492 14.5247H18.513C18.6486 14.5247 18.7636 14.4793 18.8582 14.3883C18.9527 14.2974 19 14.186 19 14.0541ZM17.7744 12.7064C17.7744 12.7527 17.7441 12.7759 17.6834 12.7759H16.8592C16.8128 12.7759 16.7718 12.7474 16.7361 12.6903C16.6077 12.3801 16.4078 12.1234 16.1367 11.9202C15.8655 11.717 15.5622 11.6029 15.2268 11.5779L14.9271 11.5351C14.8522 11.5351 14.8147 11.503 14.8147 11.4388L14.7719 11.1447C14.7113 10.5279 14.4499 10.01 13.9879 9.59107C13.5258 9.17213 12.9808 8.96266 12.3528 8.96266C11.7213 8.96266 11.1736 9.17035 10.7098 9.58572C10.2459 10.0011 9.98189 10.5208 9.91766 11.1447L9.87485 11.4816C9.87485 11.5458 9.84273 11.5779 9.77851 11.5779H8.85261C8.33525 11.5779 7.89193 11.7597 7.52264 12.1234C7.15336 12.4871 6.96871 12.9238 6.96871 13.4337C6.96871 13.9436 7.15336 14.3803 7.52264 14.744C7.89193 15.1077 8.33525 15.2895 8.85261 15.2895H12.797C12.8684 15.2895 12.9041 15.3216 12.9041 15.3858V16.1773C12.9041 16.2415 12.8684 16.2736 12.797 16.2736H8.85261C8.33525 16.2736 7.85803 16.147 7.42095 15.8938C6.98388 15.6407 6.63778 15.2957 6.38267 14.859C6.12756 14.4222 6 13.9471 6 13.4337C6 12.9167 6.12756 12.4407 6.38267 12.0058C6.63778 11.5708 6.98388 11.2267 7.42095 10.9736C7.85803 10.7204 8.33525 10.5938 8.85261 10.5938H9.02923C9.20763 9.83441 9.60635 9.21224 10.2254 8.72735C10.8444 8.24245 11.5536 8 12.3528 8C13.1592 8 13.8728 8.25047 14.4936 8.75141C15.1145 9.25235 15.5087 9.89324 15.6764 10.6741C16.1652 10.7882 16.5987 11.0226 16.9769 11.3773C17.3552 11.7321 17.6174 12.1519 17.7637 12.6368V12.6582C17.7708 12.676 17.7744 12.6921 17.7744 12.7064Z" fill="white"/>
</svg>
