<svg width="25" height="25" viewBox="0 0 25 25" fill="none" xmlns="http://www.w3.org/2000/svg">
<path d="M7.6001 10.6H11.8001C12.1561 10.6 12.5041 10.4944 12.8001 10.2966C13.0961 10.0988 13.3268 9.81771 13.463 9.48881C13.5993 9.1599 13.6349 8.79799 13.5655 8.44883C13.496 8.09966 13.3246 7.77894 13.0728 7.5272C12.8211 7.27547 12.5004 7.10404 12.1512 7.03459C11.8021 6.96513 11.4401 7.00078 11.1112 7.13702C10.7823 7.27325 10.5012 7.50396 10.3034 7.79997C10.1056 8.09597 10.0001 8.44398 10.0001 8.79998" stroke="white" stroke-linecap="round" stroke-linejoin="round"/>
<path d="M8.19971 15.3999H14.7996C15.1557 15.3999 15.5037 15.5055 15.7997 15.7033C16.0957 15.901 16.3264 16.1822 16.4626 16.5111C16.5989 16.84 16.6345 17.2019 16.565 17.551C16.4956 17.9002 16.3242 18.2209 16.0724 18.4727C15.8207 18.7244 15.5 18.8958 15.1508 18.9653C14.8016 19.0347 14.4397 18.9991 14.1108 18.8629C13.7819 18.7266 13.5008 18.4959 13.303 18.1999C13.1052 17.9039 12.9997 17.5559 12.9997 17.1999" stroke="white" stroke-linecap="round" stroke-linejoin="round"/>
<path d="M7 13.0002H17.1999C17.5559 13.0002 17.9039 12.8947 18.1999 12.6969C18.4959 12.4991 18.7266 12.218 18.8629 11.8891C18.9991 11.5602 19.0348 11.1983 18.9653 10.8491C18.8959 10.4999 18.7244 10.1792 18.4727 9.92747C18.221 9.67574 17.9002 9.50431 17.5511 9.43486C17.2019 9.3654 16.84 9.40105 16.5111 9.53728C16.1822 9.67352 15.9011 9.90423 15.7033 10.2002C15.5055 10.4962 15.3999 10.8443 15.3999 11.2003" stroke="white" stroke-linecap="round" stroke-linejoin="round"/>
</svg>
